<?xml version="1.0" encoding="utf-8"?>
<!-- Generator: Adobe Illustrator 20.1.0, SVG Export Plug-In . SVG Version: 6.00 Build 0)  -->
<svg version="1.1" id="Calque_1" xmlns="http://www.w3.org/2000/svg" xmlns:xlink="http://www.w3.org/1999/xlink" x="0px" y="0px"
	 viewBox="0 0 109.7 109.7" style="enable-background:new 0 0 109.7 109.7;" xml:space="preserve">
<style type="text/css">
	.st0{fill:#339DC3;}
	.st1{fill:#F1F2F2;}
</style>
<circle class="st0" cx="54.8" cy="55.1" r="54.8"/>
<g>
	<path class="st1" d="M88.7,34.1c-2.5,1.1-5.2,1.9-8,2.2c2.9-1.7,5.1-4.4,6.1-7.7c-2.7,1.6-5.7,2.7-8.8,3.4
		c-2.5-2.7-6.1-4.4-10.1-4.4c-7.7,0-13.9,6.2-13.9,13.9c0,1.1,0.1,2.1,0.4,3.2C42.8,44,32.6,38.5,25.7,30.1c-1.2,2.1-1.9,4.4-1.9,7
		c0,4.8,2.5,9.1,6.2,11.6c-2.3-0.1-4.4-0.7-6.3-1.7c0,0.1,0,0.1,0,0.2c0,6.7,4.8,12.3,11.1,13.6c-1.2,0.3-2.4,0.5-3.7,0.5
		c-0.9,0-1.8-0.1-2.6-0.2c1.8,5.5,6.9,9.5,13,9.6c-4.8,3.7-10.7,5.9-17.2,5.9c-1.1,0-2.2-0.1-3.3-0.2c6.1,3.9,13.4,6.2,21.3,6.2
		c25.5,0,39.5-21.2,39.5-39.5c0-0.6,0-1.2,0-1.8C84.5,39.3,86.8,36.8,88.7,34.1L88.7,34.1z M88.7,34.1"/>
</g>
</svg>
