<?xml version="1.0" encoding="utf-8"?>
<!-- Generator: Adobe Illustrator 21.0.0, SVG Export Plug-In . SVG Version: 6.00 Build 0)  -->
<svg version="1.1" id="Calque_1" xmlns="http://www.w3.org/2000/svg" xmlns:xlink="http://www.w3.org/1999/xlink" x="0px" y="0px"
	 viewBox="0 0 52.5 80" style="enable-background:new 0 0 52.5 80;" xml:space="preserve">
<style type="text/css">
	.st0{fill:#EF7915;}
</style>
<path class="st0" d="M0,77.7c0,0.6,0.4,1.1,0.9,1.5c0.1,0,0.1,0.1,0.1,0.1c1.1,1,3.2,1,4.5,0l45.2-35.4c2.4-1.9,2.4-5.3,0-7.2
	L9.5,4.3l0,0c0,0-0.5-0.4-1.2-1L7.8,3C7.7,2.9,7.6,2.8,7.5,2.8c-0.8-0.6-1.6-1.2-3-2.3C3.3-0.4,0-0.6,0,3.8L0,77.7z"/>
</svg>
