<?xml version="1.0" encoding="utf-8"?>
<!-- Generator: Adobe Illustrator 21.0.0, SVG Export Plug-In . SVG Version: 6.00 Build 0)  -->
<svg version="1.1" id="Calque_1" xmlns="http://www.w3.org/2000/svg" xmlns:xlink="http://www.w3.org/1999/xlink" x="0px" y="0px"
	 viewBox="0 0 107.9 87.6" style="enable-background:new 0 0 107.9 87.6;" xml:space="preserve">
<style type="text/css">
	.st0{fill:#339DC3;}
</style>
<g>
	<path class="st0" d="M107.9,10.4c-4,1.8-8.3,3-12.7,3.5c4.6-2.7,8.1-7,9.7-12.3c-4.3,2.5-9.1,4.3-14,5.4c-4-4.3-9.7-7-16.1-7
		C62.5,0,52.6,9.9,52.6,22.1c0,1.8,0.2,3.3,0.6,5.1C34.7,26.1,18.5,17.4,7.5,4c-1.9,3.3-3,7-3,11.2c0,7.6,4,14.5,9.9,18.5
		c-3.7-0.2-7-1.1-10-2.7c0,0.2,0,0.2,0,0.3C4.3,41.9,12,50.8,22,52.9c-1.9,0.5-3.8,0.8-5.9,0.8c-1.4,0-2.9-0.2-4.1-0.3
		c2.9,8.8,11,15.1,20.7,15.3c-7.6,5.9-17,9.4-27.4,9.4c-1.8,0-3.5-0.2-5.3-0.3c9.7,6.2,21.4,9.9,33.9,9.9
		c40.6,0,62.9-33.8,62.9-62.9c0-1,0-1.9,0-2.9C101.2,18.6,104.8,14.7,107.9,10.4L107.9,10.4z"/>
</g>
</svg>
