<?xml version="1.0" encoding="utf-8"?>
<!-- Generator: Adobe Illustrator 20.1.0, SVG Export Plug-In . SVG Version: 6.00 Build 0)  -->
<svg version="1.1" id="Calque_1" xmlns="http://www.w3.org/2000/svg" xmlns:xlink="http://www.w3.org/1999/xlink" x="0px" y="0px"
	 viewBox="0 0 36 82" style="enable-background:new 0 0 36 82;" xml:space="preserve">
<style type="text/css">
	.st0{fill:#EF7915;}
</style>
<path class="st0" d="M24.6,70.6L18,77.2l-6.6-6.6c-0.8-0.8-2-0.8-2.8,0s-0.8,2,0,2.8l8,8C17,81.8,17.5,82,18,82s1-0.2,1.4-0.6l8-8
	c0.8-0.8,0.8-2,0-2.8S25.4,69.8,24.6,70.6z"/>
<path class="st0" d="M27.4,59.6c-0.8-0.8-2-0.8-2.8,0L18,66.2l-6.6-6.6c-0.8-0.8-2-0.8-2.8,0s-0.8,2,0,2.8l8,8
	C17,70.8,17.5,71,18,71s1-0.2,1.4-0.6l8-8C28.2,61.6,28.2,60.4,27.4,59.6z"/>
<path class="st0" d="M36,36V18c0-9.9-8.1-18-18-18S0,8.1,0,18v18c0,9.9,8.1,18,18,18S36,45.9,36,36z M18,50c-7.7,0-14-6.3-14-14V18
	c0-7.7,6.3-14,14-14s14,6.3,14,14v18C32,43.7,25.7,50,18,50z"/>
<path class="st0" d="M18,11c-1.1,0-2,0.9-2,2v6c0,1.1,0.9,2,2,2s2-0.9,2-2v-6C20,11.9,19.1,11,18,11z"/>
</svg>
