<?xml version="1.0" encoding="utf-8"?>
<!-- Generator: Adobe Illustrator 20.1.0, SVG Export Plug-In . SVG Version: 6.00 Build 0)  -->
<svg version="1.1" id="Calque_1" xmlns="http://www.w3.org/2000/svg" xmlns:xlink="http://www.w3.org/1999/xlink" x="0px" y="0px"
	 viewBox="0 0 75.5 75.5" style="enable-background:new 0 0 75.5 75.5;" xml:space="preserve">
<style type="text/css">
	.st0{fill:#FFFFFF;}
</style>
<path class="st0" d="M37.8,0C16.9,0,0,16.9,0,37.8c0,20.8,16.9,37.8,37.8,37.8c20.8,0,37.8-16.9,37.8-37.8C75.5,16.9,58.6,0,37.8,0z
	 M37.8,66.8c-7.1,0-13.8,3.9-19.3,0.2C9,60.7,2.8,49.9,2.8,37.8c0-19.3,15.7-35,35-35s35,15.7,35,35c0,12.2-6.2,22.9-15.7,29.2
	C51.5,70.6,44.9,66.8,37.8,66.8z"/>
<path class="st0" d="M54.4,18l-38.6,6.2c-2.1,0.3-3.6,2.4-3.2,4.5l4.1,25.5c0.1,0.9,0.6,1.6,1.1,2.2c0,0.2,0.1,0.4,0.3,0.5
	c0.2,0.1,0.4,0.2,0.6,0.1l0,0c0.7,0.4,1.6,0.5,2.4,0.4l38.6-6.2c2.1-0.3,3.6-2.4,3.2-4.5l-4.1-25.5C58.5,19.1,56.5,17.7,54.4,18z
	 M16,25.8l38.6-6.2c0.4-0.1,0.7,0,1,0.1L42.2,38.2l-8.6,1.4L15.1,26.2C15.4,26,15.7,25.9,16,25.8z M18.2,54l-4.1-25.5
	c-0.1-0.4,0-0.7,0.1-1L30.1,39L18.6,54.9C18.4,54.7,18.3,54.3,18.2,54z M59.5,49.7l-38.6,6.2c-0.4,0.1-0.7,0-1-0.1l11.5-15.9
	l1.9,1.3l9.9-1.6l1.4-1.9L61,48.8C60.5,49.3,60,49.6,59.5,49.7z M61.4,47c0,0.1,0,0.3,0,0.4l-16-10.9l11.5-15.9
	c0.2,0.3,0.3,0.6,0.4,1L61.4,47z"/>
</svg>
