<svg id="Calque_1" data-name="Calque 1" xmlns="http://www.w3.org/2000/svg" viewBox="0 0 3000.41 1832.11"><defs><style>.cls-1{fill:none;}.cls-2{fill:#148fad;}.cls-3{fill:#044759;}.cls-4{fill:#ef7915;}</style></defs><title>logo</title><path class="cls-1" d="M1564.85,938.41c50.84-3.63,101.67-7.39,151.77-10.33l37.4-2.33,25.75-1.38a2.09,2.09,0,0,0,2-2.17l-2.32-59.72-3.65-103.26-6.51-206.54-5.34-206.57q-.64-30.73-1.36-61.45a2.09,2.09,0,0,0-3.93-1q-13.87,25-27.81,50l-49.32,88.42-49.6,88.27-49.7,88.21-50.06,88c-33.26,58.74-67.07,117.17-100.63,175.75l-36.36,62.76a2.09,2.09,0,0,0,.64,2.77,302.43,302.43,0,0,1,27.94,21.5,2.06,2.06,0,0,0,1.54.5C1471.39,945.78,1518.11,942.12,1564.85,938.41Z"/><path class="cls-2" d="M1389.34,233.39c-82.23-64.18-195-96.72-335.15-96.72-77.94,0-145,10-199.29,29.59s-99.61,45.8-134.57,77.5c-35.29,32-61,68-76.27,106.91-15.12,38.6-22.78,76.13-22.78,111.55,0,69.56,12.94,126.4,38.47,169,25.81,43,66.19,76.7,120,100.1,35.93,16.37,76.88,31.1,121.71,43.77,45.79,13.2,98.07,26.89,155.39,40.7,52.32,12.74,103.51,25.25,154.71,38.14,46.14,11.62,87.23,26.83,122.12,45.2l14.51,7.64a2.09,2.09,0,0,0,2.83-.89l9.54-18.45c2.53-4.9,5.07-9.8,7.64-14.72l20.56-39.51a2.09,2.09,0,0,0-.92-2.84L1373,822.93a532.34,532.34,0,0,0-88.75-34.39c-54-15.41-99.16-27.88-142-39.24C1080.36,732.94,1026,719,978,706.76l-11.19-2.86a1031.58,1031.58,0,0,1-136.51-44.27c-38.51-16.2-68.38-38.82-91.3-69.14-22.1-29.23-33.3-72.38-33.3-128.26,0-6.88,1.57-22.13,9-55.66,5.73-25.49,19.76-52.17,41.71-79.29s56.56-51.84,103-73.58c46.83-21.76,112.36-32.79,194.78-32.79,56.79,0,109.29,6.26,156,18.6,45.49,11.83,85.26,31.1,118.19,57.26,32.48,25.8,57.93,59.13,75.64,99.07,17.86,40.27,31.26,86,31.26,145.05l.9,34.82a2.09,2.09,0,0,0,3.94.93l67.75-127.77h0C1501.37,402.11,1473,298.63,1389.34,233.39Z"/><path class="cls-3" d="M2018.49,1526.69h18.26a2.09,2.09,0,0,1,1.9,1.21l134.58,291a2.09,2.09,0,0,1-1.9,3h-19.25a2.09,2.09,0,0,1-1.91-1.23L2114,1741.07a2.09,2.09,0,0,0-1.91-1.23H1941.87a2.09,2.09,0,0,0-1.91,1.23l-36.16,79.62a2.09,2.09,0,0,1-1.91,1.23h-18a2.09,2.09,0,0,1-1.9-3l134.58-291A2.09,2.09,0,0,1,2018.49,1526.69Zm84.42,190.51-73.81-162.46a2.09,2.09,0,0,0-3.81,0l-74.21,162.46a2.09,2.09,0,0,0,1.9,3h148A2.09,2.09,0,0,0,2102.91,1717.2Z"/><path class="cls-3" d="M2266.74,1676.19v-.84c0-82.91,62-151.59,146.57-151.59,51.42,0,82.63,18.59,112.3,45.44a2.1,2.1,0,0,1,.09,3l-12.53,12.87a2.09,2.09,0,0,1-2.94,0c-25.19-24-54.22-41.7-97.33-41.7-70.35,0-123.53,57.37-123.53,131.07v.84c0,74.12,54,131.91,124,131.91,41.6,0,70.24-15.8,99.46-44.22a2.09,2.09,0,0,1,2.92,0l11.65,11.32a2.1,2.1,0,0,1,0,3c-30.56,29.73-63.81,49.58-114.88,49.58C2328.72,1826.94,2266.74,1760.36,2266.74,1676.19Z"/><path class="cls-3" d="M2727.8,1548.88h-98a2.09,2.09,0,0,1-2.09-2.09v-15.91a2.09,2.09,0,0,1,2.09-2.09h221.94a2.09,2.09,0,0,1,2.09,2.09v15.91a2.09,2.09,0,0,1-2.09,2.09h-98a2.09,2.09,0,0,0-2.09,2.09v268.85a2.09,2.09,0,0,1-2.09,2.09H2732a2.09,2.09,0,0,1-2.09-2.09V1551A2.09,2.09,0,0,0,2727.8,1548.88Z"/><path class="cls-3" d="M2962.39,1597.79c15.93-8.51,22.32-17.22,21.81-31.39a2.1,2.1,0,0,0-2.1-2h-7.23a2.09,2.09,0,0,1-2.09-2.09v-31.41a2.09,2.09,0,0,1,2.09-2.09h23.45a2.09,2.09,0,0,1,2.09,2.09v28.89c0,25.33-9.17,39.1-32.94,48.7a2.09,2.09,0,0,1-2.66-1l-3.31-6.89A2.12,2.12,0,0,1,2962.39,1597.79Z"/><path class="cls-2" d="M1100.87,1366.7c-135.46-.14-218-25-294.36-88.73h0c-62.31-52.11-98.12-131.72-106.81-237.09a2.09,2.09,0,0,0-2.21-1.92l-80.08,4.81a2.1,2.1,0,0,0-2,2.25c9.64,130.27,53,229.18,129.32,294.49,87.64,75.2,179.74,105.73,328.5,108.87h0c7.18.15,5.62-7.77,8.75-14.22h0a118.11,118.11,0,0,1,8.37-13.79c4-5.52,10-9.78,12.8-15.63l25.7-36a2.09,2.09,0,0,0-1.88-3Z"/><path class="cls-4" d="M2362.43,913.37c-12-.31-29.63-1.07-52-1.42s-49.57-.74-80.73-.82-66.28.16-104.57.69-79.75,1.52-123.58,2.86-90,3.12-137.76,5.4c-6.25.26-12.57.58-18.88.9a2.13,2.13,0,0,1-2.24-2.13l-.07-57.64-.48-103.33-1.75-206.64-2.92-206.61c-1.32-68.86-2.23-137.74-3.91-206.59L1830.36,8a2.13,2.13,0,0,0-4-1l-62.19,114c-32.33,59.25-64.91,118.36-96.92,177.79l-48.2,89L1571.11,477l-47.82,89.25-47.46,89.44c-31.76,59.57-62.95,119.44-94.4,179.17l-33.85,65-12.91,24.81c-3.25,6.2-6.45,12.43-9.67,18.64q-4.08,7.88-8.17,15.76a2.14,2.14,0,0,1-1.69,1.15c-16.34,1.59-32.57,3.21-48.56,4.95-95.1,9.89-183.74,20.63-259.63,31s-139,20.27-183.19,27.82c-22.09,3.69-39.4,7.07-51.22,9.16h0a2.13,2.13,0,0,0,.32,4.23h0c12,.3,29.63,1.05,52,1.39,44.79.85,108.71,1.22,185.3.06s165.84-3.78,261.34-8.25l5.12-.24a2.13,2.13,0,0,1,2,3.11l-36.6,71.37c-15.33,30.08-31,60-46,90.22l-45.52,90.51c-15.19,30.16-30.39,60.32-45.24,90.66l-35.89,72.86-8.89,18.06q-6.46,13.41-13,26.8-7.41,15.28-14.8,30.56a2.14,2.14,0,0,0,3.74,2.06q10.08-16.23,20.1-32.49,6.71-10.86,13.43-21.71l14.29-23.46,38.44-63.09c17.65-28.81,35-57.81,52.27-86.8l52-86.95c17.44-28.93,34.3-58.17,51.47-87.24l51.3-87.33,5.34-9.1a2.14,2.14,0,0,1,1.73-1.05l7.43-.4c24.56-1.28,49.42-2.65,74.45-4.29l4.12-.26q29.32-1.74,58.94-3.79,44.22-3,88.71-6.23c50.81-4,101.63-7.92,151.6-12.52l37.33-3.3,23-2.24a2.13,2.13,0,0,1,2.34,2l3,72.66,4.63,103.24,10.34,206.47,6,103.22c2.1,34.4,3.81,68.81,6.22,103.21l6.85,103.2c1.72,22.43,3.29,44.87,5,67.3a2.14,2.14,0,0,0,4.27-.09c.8-22.48,1.47-45,2.29-67.45L1836,1584.7c1-34.47,1.37-68.92,2.09-103.38L1840,1378l2.08-206.71.5-103.35.11-77.59a2.13,2.13,0,0,1,1.92-2.12c8.07-.81,16.15-1.62,24.12-2.49,47.55-4.91,93.48-10.13,137-15.3s84.66-10.53,122.61-15.68,72.71-10.25,103.5-15,57.62-9.1,79.69-12.9,39.4-7.09,51.22-9.19l.11,0a2.13,2.13,0,0,0-.32-4.23ZM1754,925.75l-37.4,2.33c-50.1,2.94-100.93,6.7-151.77,10.33-47,3.74-94.05,7.42-140.42,11.59-3.72.33-7.47.65-11.18,1q-15.43,1.31-30.73,2.75a2.13,2.13,0,0,1-2-3.2l.3-.52,13.43-23.19,37.33-64.44c33.56-58.58,67.38-117,100.63-175.75l50.06-88,49.7-88.21,49.6-88.27,49.32-88.42q14-24.9,27.74-49.9a2.14,2.14,0,0,1,4,1q.7,30.65,1.35,61.3l5.34,206.57,6.51,206.54,3.65,103.26,2.32,59.68a2.13,2.13,0,0,1-2,2.21Z"/><path class="cls-3" d="M1.37,1777.63l11.46-13.15a2.1,2.1,0,0,1,3-.16c31.64,28.73,61.1,42.1,103.53,42.1,44,0,74.12-24.71,74.12-58.21v-.84c0-31-16.33-49-82.91-62.4-70.35-14.24-98.83-38.11-98.83-82.5v-.84c0-43.55,39.78-77.05,94.22-77.05,41.92,0,69.72,11.29,98.85,34.28a2.1,2.1,0,0,1,.33,3L194,1575.68a2.1,2.1,0,0,1-3,.28c-27.09-22.83-54.28-31.68-85.88-31.68-43.13,0-71.61,24.71-71.61,55.28v.84c0,31,15.91,49.83,85.43,64.07,67.84,13.82,96.31,38.11,96.31,80.82v.84c0,47.32-40.62,80-97.15,80-46.21,0-81.85-15-116.53-45.52A2.1,2.1,0,0,1,1.37,1777.63Z"/><path class="cls-3" d="M351.76,1528.78h17.59a2.09,2.09,0,0,1,2.09,2.09v288.95a2.09,2.09,0,0,1-2.09,2.09H351.76a2.09,2.09,0,0,1-2.09-2.09V1530.88A2.09,2.09,0,0,1,351.76,1528.78Z"/><path class="cls-3" d="M523.45,1528.78H541a2.09,2.09,0,0,1,2.09,2.09v268.85a2.09,2.09,0,0,0,2.09,2.09H713.15a2.09,2.09,0,0,1,2.09,2.09v15.91a2.09,2.09,0,0,1-2.09,2.09H523.45a2.09,2.09,0,0,1-2.09-2.09V1530.88A2.09,2.09,0,0,1,523.45,1528.78Z"/><path class="cls-3" d="M770.37,1528.78h19.7a2.09,2.09,0,0,1,1.93,1.27l112.28,263.89a2.09,2.09,0,0,0,3.85,0l112.69-263.89a2.09,2.09,0,0,1,1.93-1.27h18.45a2.09,2.09,0,0,1,1.92,2.93L916,1822.75A2.09,2.09,0,0,1,914,1824H897.52a2.09,2.09,0,0,1-1.92-1.26l-127.15-291A2.09,2.09,0,0,1,770.37,1528.78Z"/><path class="cls-3" d="M1168.35,1528.78H1372.7a2.09,2.09,0,0,1,2.09,2.09v15.91a2.09,2.09,0,0,1-2.09,2.09H1190.12A2.09,2.09,0,0,0,1188,1551v111a2.09,2.09,0,0,0,2.09,2.09h163.74a2.09,2.09,0,0,1,2.09,2.09V1682a2.09,2.09,0,0,1-2.09,2.09H1190.12a2.09,2.09,0,0,0-2.09,2.09v113.49a2.09,2.09,0,0,0,2.09,2.09H1374.8a2.09,2.09,0,0,1,2.09,2.09v15.91a2.09,2.09,0,0,1-2.09,2.09H1168.35a2.09,2.09,0,0,1-2.09-2.09V1530.88A2.09,2.09,0,0,1,1168.35,1528.78Z"/><path class="cls-3" d="M1506.71,1530.88a2.09,2.09,0,0,1,2.09-2.09h121c36,0,64.91,11.31,82.5,28.89a77.28,77.28,0,0,1,22.19,54.44v.84c0,47.83-34.72,75.71-82.34,83.24a2.09,2.09,0,0,0-1.32,3.34l91.94,119a2.09,2.09,0,0,1-1.66,3.37h-22.34a2.09,2.09,0,0,1-1.66-.82L1625,1701.29a2.09,2.09,0,0,0-1.66-.82h-92.77a2.09,2.09,0,0,0-2.09,2.09v117.25a2.09,2.09,0,0,1-2.09,2.09H1508.8a2.09,2.09,0,0,1-2.09-2.09Zm120.6,149.92c49,0,85.43-24.71,85.43-67V1613c0-39.36-31-64.07-84.17-64.07h-98a2.09,2.09,0,0,0-2.09,2.09V1678.7a2.09,2.09,0,0,0,2.09,2.09Z"/></svg>