<svg id="Calque_1" data-name="Calque 1" xmlns="http://www.w3.org/2000/svg" viewBox="0 0 1812.73 1751.73"><defs><style>.cls-1{fill:none;}.cls-2{fill:#148fad;}.cls-3{fill:#ef7915;}</style></defs><title>monogramme</title><path class="cls-1" d="M980.2,932.53c50.84-3.63,101.67-7.39,151.77-10.33l37.4-2.33,25.75-1.38a2.09,2.09,0,0,0,2-2.17l-2.32-59.72-3.65-103.26-6.51-206.54-5.34-206.57q-.64-30.73-1.36-61.45a2.09,2.09,0,0,0-3.93-1q-13.87,25-27.81,50l-49.32,88.42-49.6,88.27-49.7,88.21-50.06,88c-33.26,58.74-67.07,117.17-100.63,175.75l-36.36,62.76a2.09,2.09,0,0,0,.64,2.77,302.43,302.43,0,0,1,27.94,21.5,2.06,2.06,0,0,0,1.54.5C886.75,939.9,933.46,936.25,980.2,932.53Z"/><path class="cls-2" d="M804.69,227.52c-82.23-64.18-195-96.72-335.15-96.72-77.94,0-145,10-199.29,29.59s-99.61,45.8-134.57,77.5c-35.29,32-61,68-76.27,106.91C44.3,383.4,36.63,420.93,36.63,456.35c0,69.56,12.94,126.4,38.47,169,25.81,43,66.19,76.7,120,100.1,35.93,16.37,76.88,31.1,121.71,43.77,45.79,13.2,98.07,26.89,155.39,40.7C524.49,822.6,575.69,835.11,626.88,848,673,859.63,714.11,874.84,749,893.21l14.51,7.64a2.09,2.09,0,0,0,2.83-.89l9.54-18.45c2.53-4.9,5.07-9.8,7.64-14.72l20.56-39.51a2.09,2.09,0,0,0-.92-2.84l-14.83-7.39a532.34,532.34,0,0,0-88.75-34.39c-54-15.41-99.16-27.88-142-39.24-61.86-16.36-116.24-30.27-164.22-42.54L382.17,698a1031.58,1031.58,0,0,1-136.51-44.27c-38.51-16.2-68.38-38.82-91.3-69.14-22.1-29.23-33.3-72.38-33.3-128.26,0-6.88,1.57-22.13,9-55.66,5.73-25.49,19.76-52.17,41.71-79.29s56.56-51.84,103-73.58C321.6,226.06,387.13,215,469.55,215c56.79,0,109.29,6.26,156,18.6,45.49,11.83,85.26,31.1,118.19,57.26C776.25,316.69,801.7,350,819.41,390c17.86,40.27,31.26,86,31.26,145.05l.9,34.82a2.09,2.09,0,0,0,3.94.93L923.28,443h0C916.73,396.23,888.34,292.76,804.69,227.52Z"/><path class="cls-2" d="M516.22,1360.82c-135.46-.14-218-25-294.36-88.73h0C159.56,1220,123.75,1140.37,115.05,1035a2.09,2.09,0,0,0-2.21-1.92l-80.08,4.81a2.1,2.1,0,0,0-2,2.25c9.64,130.27,53,229.18,129.32,294.49,87.64,75.2,179.74,105.73,328.5,108.87h0c7.18.15,5.62-7.77,8.75-14.22h0a118.11,118.11,0,0,1,8.37-13.79c4-5.52,10-9.78,12.8-15.63l25.7-36a2.09,2.09,0,0,0-1.88-3Z"/><path class="cls-3" d="M1777.78,907.5c-12-.31-29.63-1.07-52-1.42s-49.57-.74-80.73-.82-66.28.16-104.57.69-79.75,1.52-123.58,2.86-90,3.12-137.76,5.4c-6.25.26-12.57.58-18.88.9A2.13,2.13,0,0,1,1258,913l-.07-57.64L1257.46,752l-1.75-206.64-2.92-206.61c-1.32-68.86-2.23-137.74-3.91-206.59L1245.71,2.09a2.13,2.13,0,0,0-4-1l-62.19,114c-32.33,59.25-64.91,118.36-96.92,177.79l-48.2,89-47.92,89.19-47.82,89.25L891.19,649.8c-31.76,59.57-62.95,119.44-94.4,179.17l-33.85,65L750,918.8c-3.25,6.2-6.45,12.43-9.67,18.64q-4.08,7.88-8.17,15.76a2.14,2.14,0,0,1-1.69,1.15c-16.34,1.59-32.57,3.21-48.56,4.95-95.1,9.89-183.74,20.63-259.63,31s-139,20.27-183.19,27.82c-22.09,3.69-39.4,7.07-51.22,9.16h0a2.13,2.13,0,0,0,.32,4.23h0c12,.3,29.63,1.05,52,1.39,44.79.85,108.71,1.22,185.3.06s165.84-3.78,261.34-8.25l5.12-.24a2.13,2.13,0,0,1,2,3.11l-36.6,71.37c-15.33,30.08-31,60-46,90.22l-45.52,90.51c-15.19,30.16-30.39,60.32-45.24,90.66l-35.89,72.86-8.89,18.06q-6.46,13.41-13,26.8-7.41,15.28-14.8,30.56a2.14,2.14,0,0,0,3.74,2.06q10.08-16.23,20.1-32.49,6.71-10.86,13.43-21.71L499.56,1443,538,1379.91c17.65-28.81,35-57.81,52.27-86.8l52-86.95c17.44-28.93,34.3-58.17,51.47-87.24l51.3-87.33,5.34-9.1a2.14,2.14,0,0,1,1.73-1.05l7.43-.4c24.56-1.28,49.42-2.65,74.45-4.29l4.12-.26q29.32-1.74,58.94-3.79,44.22-3,88.71-6.23c50.81-4,101.63-7.92,151.6-12.52l37.33-3.3,23-2.24a2.13,2.13,0,0,1,2.34,2l3,72.66,4.63,103.24L1218,1372.82l6,103.22c2.1,34.4,3.81,68.81,6.22,103.21l6.85,103.2c1.72,22.43,3.29,44.87,5,67.3a2.14,2.14,0,0,0,4.27-.09c.8-22.48,1.47-45,2.29-67.45l2.72-103.39c1-34.47,1.37-68.92,2.09-103.38l1.86-103.37,2.08-206.71.5-103.35.11-77.59a2.13,2.13,0,0,1,1.92-2.12c8.07-.81,16.15-1.62,24.12-2.49,47.55-4.91,93.48-10.13,137-15.3s84.66-10.53,122.61-15.68,72.71-10.25,103.5-15,57.62-9.1,79.69-12.9,39.4-7.09,51.22-9.19l.11,0a2.13,2.13,0,0,0-.32-4.23Zm-608.41,12.38L1132,922.2c-50.1,2.94-100.93,6.7-151.77,10.33-47,3.74-94.05,7.42-140.42,11.59-3.72.33-7.47.65-11.18,1q-15.43,1.31-30.73,2.75a2.13,2.13,0,0,1-2-3.2l.3-.52L809.57,921l37.33-64.44c33.56-58.58,67.38-117,100.63-175.75l50.06-88,49.7-88.21,49.6-88.27,49.32-88.42q14-24.9,27.74-49.9a2.14,2.14,0,0,1,4,1q.7,30.65,1.35,61.3l5.34,206.57,6.51,206.54,3.65,103.26,2.32,59.68a2.13,2.13,0,0,1-2,2.21Z"/></svg>