<?xml version="1.0" encoding="utf-8"?>
<!-- Generator: Adobe Illustrator 21.0.0, SVG Export Plug-In . SVG Version: 6.00 Build 0)  -->
<svg version="1.1" id="Calque_1" xmlns="http://www.w3.org/2000/svg" xmlns:xlink="http://www.w3.org/1999/xlink" x="0px" y="0px"
	 viewBox="0 0 23.5 41.3" style="enable-background:new 0 0 23.5 41.3;" xml:space="preserve">
<style type="text/css">
	.st0{fill:#EF7915;}
</style>
<g>
	<g>
		<path class="st0" d="M14,29.1c-0.4-0.2-0.7-0.5-1-0.9c-2.5-3.6-4.1-7.8-4.6-12.2c-0.1-0.8-0.1-1.6,0.3-2.2c0.8-1.2,2.7-0.9,3.7-2
			c0.9-0.9,0.9-2.3,0.6-3.6c-0.4-2.1-1.2-4-2.4-5.8c-0.6-0.8-1.2-1.6-2.1-2.1C4.5-1.7,1.1,5.1,0.4,8c-0.7,3.1-0.5,6.3,0.1,9.4
			c1.3,7.4,4.4,14.5,9.8,19.7c1.9,1.8,4.1,3.4,6.7,3.9c1.3,0.3,2.6,0.2,3.8-0.3c1.2-0.5,2.2-1.5,2.5-2.8c0.3-1.3,0-2.6-0.5-3.8
			c-0.6-1.8-1.5-3.5-2.5-5.1c-0.2-0.3-0.4-0.6-0.7-0.8c-0.3-0.2-0.7-0.2-1.1-0.1c-1.1,0.1-2.1,0.3-3.1,0.6c-0.4,0.2-0.9,0.3-1.4,0.2
			C14.1,29.1,14.1,29.1,14,29.1z"/>
	</g>
</g>
</svg>
