<?xml version="1.0" encoding="utf-8"?>
<!-- Generator: Adobe Illustrator 20.1.0, SVG Export Plug-In . SVG Version: 6.00 Build 0)  -->
<svg version="1.1" id="Calque_1" xmlns="http://www.w3.org/2000/svg" xmlns:xlink="http://www.w3.org/1999/xlink" x="0px" y="0px"
	 viewBox="0 0 75.5 75.5" style="enable-background:new 0 0 75.5 75.5;" xml:space="preserve">
<style type="text/css">
	.st0{fill:#EF7915;}
</style>
<path class="st0" d="M37.8,0C16.9,0,0,16.9,0,37.8c0,20.8,16.9,37.8,37.8,37.8c20.8,0,37.8-16.9,37.8-37.8C75.5,16.9,58.6,0,37.8,0z
	 M37.8,66.8c-7.1,0-13.8,3.9-19.3,0.2C9,60.7,2.8,49.9,2.8,37.8c0-19.3,15.7-35,35-35s35,15.7,35,35c0,12.2-6.2,22.9-15.7,29.2
	C51.5,70.6,44.9,66.8,37.8,66.8z"/>
<path class="st0" d="M49.7,15.5H25.8c-0.4,0-0.8,0.3-0.8,0.8v43c0,0.4,0.3,0.8,0.8,0.8h23.8c0.4,0,0.8-0.3,0.8-0.8v-43
	C50.4,15.8,50.1,15.5,49.7,15.5z M34.5,16.9H43c0.2,0,0.4,0.2,0.4,0.4s-0.2,0.4-0.4,0.4h-8.5c-0.2,0-0.3-0.2-0.3-0.4
	S34.3,16.9,34.5,16.9z M32.8,16.9c0.2,0,0.3,0.2,0.3,0.4s-0.2,0.4-0.3,0.4c-0.2,0-0.4-0.2-0.4-0.4S32.7,16.9,32.8,16.9z M37.8,58.6
	c-0.8,0-1.5-0.7-1.5-1.5c0-0.8,0.7-1.5,1.5-1.5c0.8,0,1.5,0.7,1.5,1.5C39.3,58,38.6,58.6,37.8,58.6z M48.6,54c0,0.4-0.3,0.7-0.7,0.7
	H27.6c-0.4,0-0.7-0.3-0.7-0.7V19.4c0-0.4,0.3-0.7,0.7-0.7h20.3c0.4,0,0.7,0.3,0.7,0.7V54z"/>
</svg>
